<?xml version="1.0" standalone="no"?>
<!DOCTYPE svg PUBLIC "-//W3C//DTD SVG 20010904//EN"
 "http://www.w3.org/TR/2001/REC-SVG-20010904/DTD/svg10.dtd">
<svg version="1.0" xmlns="http://www.w3.org/2000/svg"
 width="286.000000pt" height="176.000000pt" viewBox="0 0 286.000000 176.000000"
 preserveAspectRatio="xMidYMid meet">

<g transform="translate(0.000000,176.000000) scale(0.100000,-0.100000)"
fill="#000000" stroke="none">
<path d="M2420 1022 c-37 -11 -67 -28 -95 -57 l-41 -40 -33 22 c-47 32 -107
46 -163 39 -90 -12 -99 -26 -13 -21 69 5 84 3 113 -14 21 -14 32 -29 32 -44 0
-40 -33 -60 -108 -66 l-67 -6 25 -17 c33 -24 113 -23 166 1 l41 19 27 -28 c32
-35 107 -54 158 -40 19 6 47 24 64 41 l29 30 -28 -10 c-44 -17 -64 -13 -98 17
-24 22 -31 36 -31 65 0 88 116 134 219 88 62 -29 97 -87 101 -170 7 -115 -44
-215 -176 -348 -46 -45 -81 -83 -78 -83 10 0 235 163 284 206 123 108 146 266
52 356 -57 54 -132 78 -238 77 -48 0 -111 -8 -142 -17z"/>
<path d="M1912 909 c-41 -40 -56 -95 -42 -148 17 -65 88 -125 236 -199 44 -22
117 -65 162 -95 45 -30 82 -51 82 -46 0 5 -51 51 -112 102 -133 111 -204 184
-224 232 -18 44 -18 122 0 158 l15 27 -43 0 c-34 0 -49 -6 -74 -31z"/>
<path d="M970 388 c0 -18 49 -98 61 -98 4 0 9 7 12 14 4 9 1 13 -6 10 -7 -2
-24 17 -39 43 -15 27 -28 41 -28 31z"/>
<path d="M1835 388 c-40 -23 -46 -57 -15 -88 22 -22 66 -26 90 -9 12 8 10 9
-8 4 -59 -17 -97 26 -66 73 14 21 22 23 52 18 26 -4 32 -2 22 4 -20 13 -50 12
-75 -2z"/>
<path d="M1981 341 c-17 -33 -28 -61 -23 -61 4 0 18 21 31 48 20 40 25 44 31
27 4 -11 6 -23 3 -27 -2 -5 0 -8 5 -8 5 0 12 -9 15 -20 3 -11 10 -20 16 -20 9
0 -24 95 -40 114 -4 5 -21 -19 -38 -53z"/>
<path d="M2118 393 c20 -4 22 -10 22 -59 0 -30 5 -54 10 -54 6 0 10 24 10 54
0 49 2 55 23 59 12 2 -3 4 -33 4 -30 0 -45 -2 -32 -4z"/>
<path d="M2240 340 l0 -60 38 1 c30 2 32 3 10 6 -36 6 -40 49 -5 56 l22 4 -22
2 c-35 2 -31 39 5 44 22 3 20 4 -10 6 l-38 1 0 -60z"/>
<path d="M2360 340 c0 -33 4 -60 10 -60 6 0 10 25 10 55 0 48 2 55 20 55 25 0
26 -28 3 -46 -17 -12 -16 -15 9 -40 34 -34 51 -24 18 11 -20 22 -21 25 -6 31
9 3 16 14 16 24 0 20 -19 30 -56 30 -23 0 -24 -3 -24 -60z"/>
<path d="M2490 340 l0 -60 43 2 c37 1 38 2 9 5 -27 4 -33 8 -30 26 2 13 13 24
28 28 l25 7 -27 1 c-21 1 -28 6 -28 20 0 15 8 21 33 24 28 3 26 4 -10 5 l-43
2 0 -60z"/>
<path d="M2610 340 c0 -78 17 -78 22 0 2 43 -1 60 -9 60 -9 0 -13 -19 -13 -60z"/>
<path d="M2663 389 c23 -13 22 -36 -3 -44 -20 -6 -20 -7 2 -35 13 -16 29 -29
36 -29 9 -1 7 8 -7 26 -20 24 -20 27 -5 44 14 15 14 21 4 34 -7 8 -20 15 -29
15 -14 -1 -14 -2 2 -11z"/>
<path d="M2763 393 c-24 -9 -14 -42 17 -58 17 -9 30 -23 30 -32 0 -12 -7 -14
-35 -10 -21 3 -33 2 -30 -4 9 -13 59 -11 73 3 21 21 13 39 -23 54 -40 17 -44
31 -12 44 12 5 15 9 7 9 -8 -1 -21 -3 -27 -6z"/>
<path d="M845 380 c-3 -5 -2 -10 3 -10 5 0 17 -20 28 -45 10 -25 22 -45 27
-45 5 0 7 3 5 8 -1 4 -11 28 -22 55 -19 47 -29 56 -41 37z"/>
<path d="M1077 378 c-3 -8 -1 -21 4 -29 5 -8 9 -26 9 -41 0 -16 4 -28 9 -28
10 0 3 76 -9 99 -6 11 -8 11 -13 -1z"/>
<path d="M1165 366 c-12 -18 -13 -30 -6 -50 6 -14 16 -26 23 -26 9 0 9 3 0 12
-15 15 -15 61 0 76 7 7 9 12 5 12 -3 0 -14 -11 -22 -24z"/>
<path d="M1264 374 c19 -18 21 -55 4 -72 -9 -9 -9 -12 0 -12 7 0 17 11 24 25
9 19 8 29 -6 50 -9 14 -21 25 -27 25 -6 0 -3 -7 5 -16z"/>
<path d="M1334 335 c0 -30 3 -55 8 -55 4 0 8 25 8 55 0 30 -3 55 -7 55 -5 0
-8 -25 -9 -55z"/>
<path d="M1404 370 c0 -11 4 -20 8 -20 4 0 8 9 8 20 0 11 -4 20 -8 20 -4 0 -8
-9 -8 -20z"/>
<path d="M1485 335 c0 -30 5 -55 10 -55 6 0 9 17 8 37 -1 21 -2 46 -2 56 -1 9
-4 17 -8 17 -5 0 -8 -25 -8 -55z"/>
<path d="M959 312 c-3 -20 -2 -29 4 -23 5 5 7 19 5 32 -3 20 -5 19 -9 -9z"/>
<path d="M1385 310 c16 -16 33 -30 37 -30 5 0 -1 14 -14 30 -12 17 -29 30 -37
30 -10 0 -6 -9 14 -30z"/>
</g>
</svg>
